# 3ds Max Wavefront OBJ Exporter v0.97b - (c)2007 guruware
# File Created: 30.01.2014 22:12:19

#
# object Box01
#

v  -18.6381 0.0000 18.6079
v  -18.6381 0.0000 -18.6521
v  18.6219 0.0000 -18.6521
v  18.6219 0.0000 18.6079
v  -18.6381 30.0000 18.6079
v  18.6219 30.0000 18.6079
v  18.6219 30.0000 -18.6521
v  -18.6381 30.0000 -18.6521
v  -18.6381 1.3700 19.9779
v  18.6219 1.3700 19.9779
v  18.6219 28.6300 19.9779
v  -18.6381 28.6300 19.9779
v  19.9919 1.3700 18.6079
v  19.9919 1.3700 -18.6521
v  19.9919 28.6300 -18.6521
v  19.9919 28.6300 18.6079
v  18.6219 1.3700 -20.0221
v  -18.6381 1.3700 -20.0221
v  -18.6381 28.6300 -20.0221
v  18.6219 28.6300 -20.0221
v  -20.0081 1.3700 -18.6521
v  -20.0081 1.3700 18.6079
v  -20.0081 28.6300 18.6079
v  -20.0081 28.6300 -18.6521
# 24 vertices

vn -0.3416 -0.8756 0.3416
vn -0.3416 -0.8756 -0.3416
vn 0.3416 -0.8756 -0.3416
vn 0.3416 -0.8756 0.3416
vn -0.3416 0.8756 0.3416
vn 0.3416 0.8756 0.3416
vn 0.3416 0.8756 -0.3416
vn -0.3416 0.8756 -0.3416
vn -0.3416 -0.3416 0.8756
vn 0.3416 -0.3416 0.8756
vn 0.3416 0.3416 0.8756
vn -0.3416 0.3416 0.8756
vn 0.8756 -0.3416 0.3416
vn 0.8756 -0.3416 -0.3416
vn 0.8756 0.3416 -0.3416
vn 0.8756 0.3416 0.3416
vn 0.3416 -0.3416 -0.8756
vn -0.3416 -0.3416 -0.8756
vn -0.3416 0.3416 -0.8756
vn 0.3416 0.3416 -0.8756
vn -0.8756 -0.3416 -0.3416
vn -0.8756 -0.3416 0.3416
vn -0.8756 0.3416 0.3416
vn -0.8756 0.3416 -0.3416
# 24 vertex normals

vt 0.9658 0.0343 0.0000
vt 0.9658 0.9657 0.0000
vt 0.0343 0.9658 0.0000
vt 0.0343 0.0343 0.0000
vt 0.9657 0.0343 0.0000
vt 0.9658 0.9658 0.0000
vt 0.0343 0.0457 0.0000
vt 0.9658 0.0457 0.0000
vt 0.9658 0.9543 0.0000
vt 0.0343 0.9543 0.0000
vt -0.0092 0.0774 0.0000
vt -0.0166 0.0105 0.0000
vt -0.0132 0.0726 0.0000
vt -0.0132 0.0188 0.0000
vt -0.0132 0.9812 0.0000
vt -0.0132 0.9274 0.0000
vt -0.0166 0.9895 0.0000
vt -0.0092 0.9226 0.0000
vt 0.9658 0.0771 0.0000
vt 0.0342 0.0771 0.0000
vt 0.0342 0.9229 0.0000
vt 0.9658 0.9229 0.0000
vt 0.0988 0.0457 0.0000
vt 0.0988 0.9543 0.0000
vt 0.9012 0.9543 0.0000
vt 0.9012 0.0457 0.0000
# 26 texture coords

g Box01
s 1
f 1/1/1 2/2/2 3/3/3 
f 3/3/3 4/4/4 1/1/1 
f 5/4/5 6/5/6 7/6/7 
f 7/6/7 8/3/8 5/4/5 
f 9/7/9 10/8/10 11/9/11 
f 11/9/11 12/10/12 9/7/9 
f 13/7/13 14/8/14 15/9/15 
f 15/9/15 16/10/16 13/7/13 
f 17/7/17 18/8/18 19/9/19 
f 19/9/19 20/10/20 17/7/17 
f 21/7/21 22/8/22 23/9/23 
f 23/9/23 24/10/24 21/7/21 
f 9/7/9 22/11/22 1/12/1 
f 4/4/4 13/13/13 10/14/10 
f 21/7/21 18/11/18 2/12/2 
f 3/3/3 17/15/17 14/16/14 
f 12/10/12 5/17/5 23/18/23 
f 16/10/16 6/17/6 11/18/11 
f 24/10/24 8/17/8 19/18/19 
f 20/10/20 7/17/7 15/18/15 
f 1/19/1 22/8/22 21/7/21 
f 21/7/21 2/20/2 1/19/1 
f 2/19/2 18/8/18 17/7/17 
f 17/7/17 3/20/3 2/19/2 
f 3/19/3 14/8/14 13/7/13 
f 13/7/13 4/20/4 3/19/3 
f 4/19/4 10/8/10 9/7/9 
f 9/7/9 1/20/1 4/19/4 
f 5/21/5 12/10/12 11/9/11 
f 11/9/11 6/22/6 5/21/5 
f 6/21/6 16/10/16 15/9/15 
f 15/9/15 7/22/7 6/21/6 
f 7/21/7 20/10/20 19/9/19 
f 19/9/19 8/22/8 7/21/7 
f 8/21/8 24/10/24 23/9/23 
f 23/9/23 5/22/5 8/21/8 
f 10/23/10 13/7/13 16/10/16 
f 16/10/16 11/24/11 10/23/10 
f 12/25/12 23/9/23 22/8/22 
f 22/8/22 9/26/9 12/25/12 
f 14/23/14 17/7/17 20/10/20 
f 20/10/20 15/24/15 14/23/14 
f 18/23/18 21/7/21 24/10/24 
f 24/10/24 19/24/19 18/23/18 
# 44 faces

