# 3ds Max Wavefront OBJ Exporter v0.97b - (c)2007 guruware
# File Created: 31.01.2014 00:41:46

#
# object Plane02
#

v  -5.0000 -5.0000 -4.2347
v  0.0000 -2.3758 -1.0234
v  0.0000 0.0000 1.9325
v  -2.3758 0.0000 -1.0234
v  5.0000 -5.0000 -4.2347
v  2.3758 0.0000 -1.0234
v  -5.0000 5.0000 -4.2347
v  0.0000 2.3758 -1.0234
v  5.0000 5.0000 -4.2347
v  -5.6065 -0.0000 -9.4416
v  -1.3320 -1.3320 -2.4194
v  -0.0000 0.0000 -0.0758
v  -1.3320 1.3320 -2.4194
v  0.0000 -5.6065 -9.4416
v  1.3320 -1.3320 -2.4194
v  -0.0000 5.6065 -9.4416
v  1.3320 1.3320 -2.4194
v  5.6065 0.0000 -9.4416
# 18 vertices

vn -0.4648 -0.4648 0.7536
vn 0.0000 -0.7794 0.6265
vn -0.0000 -0.0000 1.0000
vn -0.7794 -0.0000 0.6265
vn 0.4648 -0.4648 0.7536
vn 0.7794 -0.0000 0.6265
vn -0.4648 0.4648 0.7536
vn 0.0000 0.7794 0.6265
vn 0.4648 0.4648 0.7536
vn -0.8580 0.0000 0.5136
vn -0.5511 -0.5511 0.6265
vn 0.0000 0.0000 1.0000
vn -0.5511 0.5511 0.6265
vn -0.0000 -0.8580 0.5136
vn 0.5511 -0.5511 0.6265
vn -0.0000 0.8580 0.5136
vn 0.5511 0.5511 0.6265
vn 0.8580 -0.0000 0.5136
# 18 vertex normals

vt 0.0000 0.0000 0.0000
vt 0.5000 0.0000 0.0000
vt 0.5000 0.5000 0.0000
vt 0.0000 0.5000 0.0000
vt 1.0000 0.0000 0.0000
vt 1.0000 0.5000 0.0000
vt 0.0000 1.0000 0.0000
vt 0.5000 1.0000 0.0000
vt 1.0000 1.0000 0.0000
# 9 texture coords

g Plane02
s 1
f 1/1/1 2/2/2 3/3/3 
f 3/3/3 4/4/4 1/1/1 
f 3/3/3 2/2/2 5/5/5 
f 5/5/5 6/6/6 3/3/3 
f 7/7/7 4/4/4 3/3/3 
f 3/3/3 8/8/8 7/7/7 
f 3/3/3 6/6/6 9/9/9 
f 9/9/9 8/8/8 3/3/3 
f 10/1/10 11/2/11 12/3/12 
f 12/3/12 13/4/13 10/1/10 
f 12/3/12 11/2/11 14/5/14 
f 14/5/14 15/6/15 12/3/12 
f 16/7/16 13/4/13 12/3/12 
f 12/3/12 17/8/17 16/7/16 
f 12/3/12 15/6/15 18/9/18 
f 18/9/18 17/8/17 12/3/12 
# 16 faces

