# 3ds Max Wavefront OBJ Exporter v0.97b - (c)2007 guruware
# File Created: 03.02.2014 08:10:01

#
# object Box10
#

v  760.0000 0.0000 -380.0000
v  760.0000 0.0000 -330.0000
v  710.0000 0.0000 -330.0000
v  710.0000 0.0000 -380.0000
v  760.0000 250.0000 -380.0000
v  710.0000 250.0000 -380.0000
v  710.0000 250.0000 -330.0000
v  760.0000 250.0000 -330.0000
v  760.0000 0.0000 310.0000
v  760.0000 0.0000 360.0000
v  710.0000 0.0000 360.0000
v  710.0000 0.0000 310.0000
v  760.0000 250.0000 310.0000
v  710.0000 250.0000 310.0000
v  710.0000 250.0000 360.0000
v  760.0000 250.0000 360.0000
v  -710.0000 0.0000 310.0000
v  -710.0000 0.0000 360.0000
v  -760.0000 0.0000 360.0000
v  -760.0000 0.0000 310.0000
v  -710.0000 250.0000 310.0000
v  -760.0000 250.0000 310.0000
v  -760.0000 250.0000 360.0000
v  -710.0000 250.0000 360.0000
v  -710.0000 0.0000 -380.0000
v  -710.0000 0.0000 -330.0000
v  -760.0000 0.0000 -330.0000
v  -760.0000 0.0000 -380.0000
v  -710.0000 250.0000 -380.0000
v  -760.0000 250.0000 -380.0000
v  -760.0000 250.0000 -330.0000
v  -710.0000 250.0000 -330.0000
# 32 vertices

vn 0.0000 -1.0000 -0.0000
vn 0.0000 1.0000 -0.0000
vn 0.0000 0.0000 1.0000
vn 1.0000 0.0000 -0.0000
vn 0.0000 0.0000 -1.0000
vn -1.0000 0.0000 -0.0000
# 6 vertex normals

vt 0.0005 3.9980 0.0005
vt 0.0005 0.0020 0.0005
vt 0.9995 0.0020 0.0005
vt 0.9995 3.9980 0.0005
vt 0.9995 3.9980 0.9995
vt 0.0005 3.9980 0.9995
vt 0.0005 0.0020 0.9995
vt 0.9995 0.0020 0.9995
# 8 texture coords

g Box10
s 2
f 1/1/1 2/2/1 3/3/1 
f 3/3/1 4/4/1 1/1/1 
s 4
f 5/5/2 6/6/2 7/7/2 
f 7/7/2 8/8/2 5/5/2 
s 8
f 8/4/3 7/1/3 3/2/3 
f 3/2/3 2/3/3 8/4/3 
s 16
f 5/5/4 8/6/4 2/7/4 
f 2/7/4 1/8/4 5/5/4 
s 32
f 6/5/5 5/6/5 1/7/5 
f 1/7/5 4/8/5 6/5/5 
s 64
f 7/4/6 6/1/6 4/2/6 
f 4/2/6 3/3/6 7/4/6 
s 2
f 9/1/1 10/2/1 11/3/1 
f 11/3/1 12/4/1 9/1/1 
s 4
f 13/5/2 14/6/2 15/7/2 
f 15/7/2 16/8/2 13/5/2 
s 8
f 16/4/3 15/1/3 11/2/3 
f 11/2/3 10/3/3 16/4/3 
s 16
f 13/5/4 16/6/4 10/7/4 
f 10/7/4 9/8/4 13/5/4 
s 32
f 14/5/5 13/6/5 9/7/5 
f 9/7/5 12/8/5 14/5/5 
s 64
f 15/4/6 14/1/6 12/2/6 
f 12/2/6 11/3/6 15/4/6 
s 2
f 17/1/1 18/2/1 19/3/1 
f 19/3/1 20/4/1 17/1/1 
s 4
f 21/5/2 22/6/2 23/7/2 
f 23/7/2 24/8/2 21/5/2 
s 8
f 24/4/3 23/1/3 19/2/3 
f 19/2/3 18/3/3 24/4/3 
s 16
f 21/5/4 24/6/4 18/7/4 
f 18/7/4 17/8/4 21/5/4 
s 32
f 22/5/5 21/6/5 17/7/5 
f 17/7/5 20/8/5 22/5/5 
s 64
f 23/4/6 22/1/6 20/2/6 
f 20/2/6 19/3/6 23/4/6 
s 2
f 25/1/1 26/2/1 27/3/1 
f 27/3/1 28/4/1 25/1/1 
s 4
f 29/5/2 30/6/2 31/7/2 
f 31/7/2 32/8/2 29/5/2 
s 8
f 32/4/3 31/1/3 27/2/3 
f 27/2/3 26/3/3 32/4/3 
s 16
f 29/5/4 32/6/4 26/7/4 
f 26/7/4 25/8/4 29/5/4 
s 32
f 30/5/5 29/6/5 25/7/5 
f 25/7/5 28/8/5 30/5/5 
s 64
f 31/4/6 30/1/6 28/2/6 
f 28/2/6 27/3/6 31/4/6 
# 48 faces

