# 3ds Max Wavefront OBJ Exporter v0.97b - (c)2007 guruware
# File Created: 02.02.2014 09:23:04

#
# object Box01
#

v  -25.0000 -25.0000 25.0000
v  -25.0000 -25.0000 -25.0000
v  25.0000 -25.0000 -25.0000
v  25.0000 -25.0000 25.0000
v  -25.0000 25.0000 25.0000
v  25.0000 25.0000 25.0000
v  25.0000 25.0000 -25.0000
v  -25.0000 25.0000 -25.0000
v  -13.1472 -13.1472 48.7460
v  13.1472 -13.1472 48.7460
v  13.1472 13.1472 48.7460
v  -13.1472 13.1472 48.7460
v  24.0000 -24.0000 35.0000
v  -24.0000 -24.0000 35.0000
v  24.0000 24.0000 35.0000
v  -24.0000 24.0000 35.0000
v  20.0100 -20.0100 42.9000
v  -20.0100 -20.0100 42.9000
v  20.0100 20.0100 42.9000
v  -20.0100 20.0100 42.9000
# 20 vertices

vn -0.7055 -0.7055 0.0681
vn -0.5774 -0.5774 -0.5774
vn 0.5774 -0.5774 -0.5774
vn 0.7055 -0.7055 0.0681
vn -0.7055 0.7055 0.0681
vn 0.7055 0.7055 0.0681
vn 0.5774 0.5774 -0.5774
vn -0.5774 0.5774 -0.5774
vn -0.2690 -0.2690 0.9248
vn 0.2690 -0.2690 0.9248
vn 0.2690 0.2690 0.9248
vn -0.2690 0.2690 0.9248
vn 0.6653 -0.6653 0.3386
vn -0.6653 -0.6653 0.3386
vn 0.6653 0.6653 0.3386
vn -0.6653 0.6653 0.3386
vn 0.5122 -0.5122 0.6894
vn -0.5122 -0.5122 0.6894
vn 0.5122 0.5122 0.6894
vn -0.5122 0.5122 0.6894
# 20 vertex normals

vt 0.9995 0.3222 0.0005
vt 0.9995 0.9995 0.0005
vt 0.0005 0.9995 0.0005
vt 0.0005 0.3222 0.0005
vt 0.0005 0.3222 0.9995
vt 0.9995 0.3222 0.9995
vt 0.9995 0.9995 0.9995
vt 0.0005 0.9995 0.9995
vt 0.2373 0.2373 0.0005
vt 0.7627 0.2373 0.0005
vt 0.7627 0.7627 0.0005
vt 0.2373 0.7627 0.0005
vt 0.3222 0.0005 0.9995
vt 0.9995 0.0005 0.9995
vt 0.3222 0.9995 0.9995
vt 0.0005 0.0005 0.9995
vt 0.0005 0.0005 0.0005
vt 0.6778 0.0005 0.0005
vt 0.6778 0.9995 0.0005
vt 0.0205 0.1867 0.0205
vt 0.9795 0.1867 0.0205
vt 0.1867 0.9795 0.9795
vt 0.1867 0.0205 0.9795
vt 0.0205 0.1867 0.9795
vt 0.9795 0.1867 0.9795
vt 0.8133 0.0205 0.0205
vt 0.8133 0.9795 0.0205
vt 0.1002 0.0797 0.1002
vt 0.8998 0.0797 0.1002
vt 0.0797 0.8998 0.8998
vt 0.0797 0.1002 0.8998
vt 0.1002 0.0797 0.8998
vt 0.8998 0.0797 0.8998
vt 0.9203 0.1002 0.1002
vt 0.9203 0.8998 0.1002
vt 0.2373 0.0005 0.2373
vt 0.7627 0.0005 0.2373
vt 0.0005 0.7627 0.7627
vt 0.0005 0.2373 0.7627
vt 0.2373 0.0005 0.7627
vt 0.7627 0.0005 0.7627
vt 0.9995 0.2373 0.2373
vt 0.9995 0.7627 0.2373
# 43 texture coords

g Box01
s 1
f 1/1/1 2/2/2 3/3/3 
f 3/3/3 4/4/4 1/1/1 
f 5/5/5 6/6/6 7/7/7 
f 7/7/7 8/8/8 5/5/5 
f 9/9/9 10/10/10 11/11/11 
f 11/11/11 12/12/12 9/9/9 
f 4/13/4 3/14/3 7/7/7 
f 7/7/7 6/15/6 4/13/4 
f 3/16/3 2/14/2 8/7/8 
f 8/7/8 7/8/7 3/16/3 
f 2/17/2 1/18/1 5/19/5 
f 5/19/5 8/3/8 2/17/2 
f 1/1/1 4/4/4 13/20/13 
f 13/20/13 14/21/14 1/1/1 
f 4/13/4 6/15/6 15/22/15 
f 15/22/15 13/23/13 4/13/4 
f 6/6/6 5/5/5 16/24/16 
f 16/24/16 15/25/15 6/6/6 
f 5/19/5 1/18/1 14/26/14 
f 14/26/14 16/27/16 5/19/5 
f 14/21/14 13/20/13 17/28/17 
f 17/28/17 18/29/18 14/21/14 
f 13/23/13 15/22/15 19/30/19 
f 19/30/19 17/31/17 13/23/13 
f 15/25/15 16/24/16 20/32/20 
f 20/32/20 19/33/19 15/25/15 
f 16/27/16 14/26/14 18/34/18 
f 18/34/18 20/35/20 16/27/16 
f 18/29/18 17/28/17 10/36/10 
f 10/36/10 9/37/9 18/29/18 
f 17/31/17 19/30/19 11/38/11 
f 11/38/11 10/39/10 17/31/17 
f 19/33/19 20/32/20 12/40/12 
f 12/40/12 11/41/11 19/33/19 
f 20/35/20 18/34/18 9/42/9 
f 9/42/9 12/43/12 20/35/20 
# 36 faces

