# 3ds Max Wavefront OBJ Exporter v0.97b - (c)2007 guruware
# File Created: 03.02.2014 08:09:29

#
# object Box05
#

v  -760.0000 250.0000 -380.0000
v  -60.0000 250.0000 -380.0000
v  -60.0000 250.0000 -420.0000
v  -760.0000 250.0000 -420.0000
v  -60.0000 0.0000 -380.0000
v  -60.0000 200.0000 -380.0000
v  -760.0000 200.0000 -380.0000
v  -760.0000 0.0000 -380.0000
v  60.0000 0.0000 -420.0000
v  60.0000 200.0000 -420.0000
v  760.0000 200.0000 -420.0000
v  760.0000 0.0000 -420.0000
v  760.0000 250.0000 -380.0000
v  760.0000 250.0000 -420.0000
v  60.0000 250.0000 -420.0000
v  60.0000 250.0000 -380.0000
v  760.0000 0.0000 -380.0000
v  760.0000 200.0000 -380.0000
v  60.0000 200.0000 -380.0000
v  60.0000 0.0000 -380.0000
v  -760.0000 0.0000 -420.0000
v  -760.0000 200.0000 -420.0000
v  -60.0000 200.0000 -420.0000
v  -60.0000 0.0000 -420.0000
v  280.0000 250.0000 -420.0000
v  280.0000 250.0000 -730.0000
v  240.0000 250.0000 -730.0000
v  240.0000 250.0000 -420.0000
v  280.0000 0.0000 -730.0000
v  280.0000 200.0000 -730.0000
v  280.0000 200.0000 -420.0000
v  280.0000 0.0000 -420.0000
v  240.0000 0.0000 -850.0000
v  240.0000 200.0000 -850.0000
v  240.0000 200.0000 -1160.0000
v  240.0000 0.0000 -1160.0000
v  280.0000 250.0000 -1160.0000
v  240.0000 250.0000 -1160.0000
v  240.0000 250.0000 -850.0000
v  280.0000 250.0000 -850.0000
v  280.0000 0.0000 -1160.0000
v  280.0000 200.0000 -1160.0000
v  280.0000 200.0000 -850.0000
v  280.0000 0.0000 -850.0000
v  240.0000 0.0000 -420.0000
v  240.0000 200.0000 -420.0000
v  240.0000 200.0000 -730.0000
v  240.0000 0.0000 -730.0000
v  -760.0000 250.0000 -1199.5259
v  -760.0000 250.0000 -1159.5259
v  760.0000 250.0000 -1159.5259
v  760.0000 250.0000 -1199.5259
v  -760.0000 0.0000 -1159.5259
v  760.0000 0.0000 -1159.5259
v  760.0000 250.0000 400.0001
v  800.0000 250.0000 400.0001
v  800.0000 250.0000 -1200.0000
v  760.0000 250.0000 -1200.0000
v  760.0000 0.0000 -1200.0000
v  760.0000 0.0000 400.0001
v  -760.0000 250.0000 359.9999
v  -760.0000 250.0000 399.9999
v  760.0000 250.0000 360.0001
v  760.0000 0.0000 360.0001
v  -760.0000 0.0000 359.9999
v  -800.0000 250.0000 399.9999
v  -760.0000 250.0000 -1200.0000
v  -800.0000 250.0000 -1200.0000
v  -760.0000 0.0000 399.9999
v  -760.0000 0.0000 -1200.0000
# 70 vertices

vn 0.0000 1.0000 -0.0000
vn -0.0000 0.0000 1.0000
vn 0.0000 0.0000 -1.0000
vn 1.0000 0.0000 0.0000
vn 0.0000 -1.0000 -0.0000
vn -1.0000 0.0000 -0.0000
vn -1.0000 0.0000 0.0000
vn 1.0000 0.0000 -0.0000
# 8 vertex normals

vt 0.0025 0.0000 0.5000
vt 2.3028 0.0000 0.5000
vt 2.3028 0.0900 0.5000
vt 0.0025 0.0900 0.5000
vt 2.3028 0.0005 0.9995
vt 2.3028 0.7997 0.9995
vt 0.0025 0.7997 0.9995
vt 0.0025 0.0005 0.9995
vt 2.3028 0.0005 0.0005
vt 2.3028 0.7997 0.0005
vt 0.0025 0.7997 0.0005
vt 0.0025 0.0005 0.0005
vt 4.9975 0.0000 0.5000
vt 4.9975 0.0900 0.5000
vt 2.6972 0.0900 0.5000
vt 2.6972 0.0000 0.5000
vt 4.9975 0.0005 0.9995
vt 4.9975 0.7997 0.9995
vt 2.6972 0.7997 0.9995
vt 2.6972 0.0005 0.9995
vt 4.9975 0.0005 0.0005
vt 4.9975 0.7997 0.0005
vt 2.6972 0.7997 0.0005
vt 2.6972 0.0005 0.0005
vt 2.3028 0.9995 0.9995
vt 0.0025 0.9995 0.9995
vt 2.3028 0.9995 0.0005
vt 0.0025 0.9995 0.0005
vt 4.9975 0.9995 0.9995
vt 2.6972 0.9995 0.9995
vt 4.9975 0.9995 0.0005
vt 2.6972 0.9995 0.0005
vt 0.2699 0.7696 0.0005
vt 0.0001 0.7696 0.0005
vt 0.0001 0.0004 0.0005
vt 0.2699 0.0004 0.0005
vt 0.2699 0.7696 0.9995
vt 0.0001 0.7696 0.9995
vt 0.0001 0.0004 0.9995
vt 0.2699 0.0004 0.9995
vt 0.0500 0.0015 0.5000
vt 0.0500 1.2570 0.5000
vt 0.0000 1.2570 0.5000
vt 0.0000 0.0015 0.5000
vt 1.2570 0.0005 0.9995
vt 1.2570 0.7997 0.9995
vt 0.0015 0.7997 0.9995
vt 0.0015 0.0005 0.9995
vt 1.2570 0.0005 0.0005
vt 1.2570 0.7997 0.0005
vt 0.0015 0.7997 0.0005
vt 0.0015 0.0005 0.0005
vt 0.0500 2.9985 0.5000
vt 0.0000 2.9985 0.5000
vt 0.0000 1.7430 0.5000
vt 0.0500 1.7430 0.5000
vt 2.9985 0.0005 0.9995
vt 2.9985 0.7997 0.9995
vt 1.7430 0.7997 0.9995
vt 1.7430 0.0005 0.9995
vt 2.9985 0.0005 0.0005
vt 2.9985 0.7997 0.0005
vt 1.7430 0.7997 0.0005
vt 1.7430 0.0005 0.0005
vt 1.2570 0.9995 0.9995
vt 0.0015 0.9995 0.9995
vt 1.2570 0.9995 0.0005
vt 0.0015 0.9995 0.0005
vt 2.9985 0.9995 0.9995
vt 1.7430 0.9995 0.9995
vt 2.9985 0.9995 0.0005
vt 1.7430 0.9995 0.0005
vt 0.2299 0.7996 0.0005
vt 0.0001 0.7996 0.0005
vt 0.2299 0.0004 0.0005
vt 0.2299 0.7996 0.9995
vt 0.0001 0.7996 0.9995
vt 0.2299 0.0004 0.9995
vt 4.9975 0.0800 0.5000
vt 0.0025 0.0800 0.5000
vt 0.0001 0.0025 0.5000
vt 0.1499 0.0025 0.5000
vt 0.1499 4.9975 0.5000
vt 0.0001 4.9975 0.5000
vt 0.0002 4.9975 0.5000
vt 0.3798 4.9975 0.5000
vt 0.3798 0.0025 0.5000
vt 0.0002 0.0025 0.5000
vt 0.2998 0.0025 0.5000
vt 0.2999 4.9975 0.5000
# 90 texture coords

g Box05
s 4
f 1/1/1 2/2/1 3/3/1 
f 3/3/1 4/4/1 1/1/1 
s 16
f 5/5/2 6/6/2 7/7/2 
f 7/7/2 8/8/2 5/5/2 
s 64
f 9/9/3 10/10/3 11/11/3 
f 11/11/3 12/12/3 9/9/3 
s 4
f 13/13/1 14/14/1 15/15/1 
f 15/15/1 16/16/1 13/13/1 
s 16
f 17/17/2 18/18/2 19/19/2 
f 19/19/2 20/20/2 17/17/2 
s 64
f 21/21/3 22/22/3 23/23/3 
f 23/23/3 24/24/3 21/21/3 
s 4
f 2/2/1 16/16/1 15/15/1 
f 15/15/1 3/3/1 2/2/1 
s 16
f 2/25/2 1/26/2 7/7/2 
f 7/7/2 6/6/2 2/25/2 
s 64
f 15/27/3 14/28/3 11/11/3 
f 11/11/3 10/10/3 15/27/3 
s 16
f 13/29/2 16/30/2 19/19/2 
f 19/19/2 18/18/2 13/29/2 
s 64
f 4/31/3 3/32/3 23/23/3 
f 23/23/3 22/22/3 4/31/3 
s 16
f 16/30/2 2/25/2 6/6/2 
f 6/6/2 19/19/2 16/30/2 
s 64
f 3/32/3 15/27/3 10/10/3 
f 10/10/3 23/23/3 3/32/3 
s 1
f 23/33/4 6/34/4 5/35/4 
f 5/35/4 24/36/4 23/33/4 
s 2
f 10/37/5 19/38/5 6/39/5 
f 6/39/5 23/40/5 10/37/5 
s 1
f 19/37/6 10/38/6 9/39/6 
f 9/39/6 20/40/6 19/37/6 
s 4
f 25/41/1 26/42/1 27/43/1 
f 27/43/1 28/44/1 25/41/1 
s 16
f 29/45/4 30/46/4 31/47/4 
f 31/47/4 32/48/4 29/45/4 
s 64
f 33/49/7 34/50/6 35/51/7 
f 35/51/7 36/52/7 33/49/7 
s 4
f 37/53/1 38/54/1 39/55/1 
f 39/55/1 40/56/1 37/53/1 
s 16
f 41/57/4 42/58/4 43/59/4 
f 43/59/4 44/60/4 41/57/4 
s 64
f 45/61/7 46/62/7 47/63/6 
f 47/63/6 48/64/7 45/61/7 
s 4
f 26/42/1 40/56/1 39/55/1 
f 39/55/1 27/43/1 26/42/1 
s 16
f 26/65/4 25/66/4 31/47/4 
f 31/47/4 30/46/4 26/65/4 
s 64
f 39/67/6 38/68/7 35/51/7 
f 35/51/7 34/50/6 39/67/6 
s 16
f 37/69/4 40/70/4 43/59/4 
f 43/59/4 42/58/4 37/69/4 
s 64
f 28/71/7 27/72/6 47/63/6 
f 47/63/6 46/62/7 28/71/7 
s 16
f 40/70/4 26/65/4 30/46/4 
f 30/46/4 43/59/4 40/70/4 
s 64
f 27/72/6 39/67/6 34/50/6 
f 34/50/6 47/63/6 27/72/6 
s 1
f 47/73/3 30/74/3 29/35/3 
f 29/35/3 48/75/3 47/73/3 
f 43/76/2 34/77/2 33/39/2 
f 33/39/2 44/78/2 43/76/2 
s 2
f 34/76/5 43/77/5 30/39/5 
f 30/39/5 47/78/5 34/76/5 
s 4
f 49/13/1 50/79/1 51/80/1 
f 51/80/1 52/1/1 49/13/1 
s 16
f 53/8/2 54/17/2 51/29/2 
f 51/29/2 50/26/2 53/8/2 
s 4
f 55/81/1 56/82/1 57/83/1 
f 57/83/1 58/84/1 55/81/1 
s 64
f 59/12/7 60/21/7 55/31/7 
f 55/31/7 58/28/7 59/12/7 
s 4
f 61/85/1 62/86/1 55/87/1 
f 55/87/1 63/88/1 61/85/1 
s 64
f 64/12/3 65/21/3 61/31/3 
f 61/31/3 63/28/3 64/12/3 
s 4
f 66/81/1 62/89/1 67/90/1 
f 67/90/1 68/85/1 66/81/1 
s 16
f 69/8/8 70/17/8 67/29/8 
f 67/29/8 62/26/8 69/8/8 
# 80 faces

